<?xml version="1.0" encoding="UTF-8"?>
<svg xmlns="http://www.w3.org/2000/svg" width="215.685" height="53.089" viewBox="0 0 215.685 53.089">
  <g id="Logo" transform="translate(-632.903 -511.376)">
    <path id="Pfad_61" data-name="Pfad 61" d="M745.9,534.633q-2.009,2.527-3.564,4.5t-3.4,4.407q-1.847,2.43-3.6,4.763a6.338,6.338,0,0,0,2.2-2.268,3.353,3.353,0,0,0,.517-.648q.194-.324.454-.68t.649-.875a9.438,9.438,0,0,1,1.165-1.231c0-.13.2-.323.585-.583a1.1,1.1,0,0,0,.582-.907,3.929,3.929,0,0,1,.616-1.134q.616-.938,1.395-2.074t1.489-2.106a14.364,14.364,0,0,1,.907-1.165m-11.4,2.656.128-.259a.57.57,0,0,0,.065-.258c0-.088-.022-.131-.065-.131a9.353,9.353,0,0,0-.454.875c-.216.454-.432.962-.648,1.523a14.831,14.831,0,0,0-.549,1.75,6.445,6.445,0,0,0-.227,1.555.177.177,0,0,0,.065.13q.128,0,.551-1.588t1.134-3.6m.128-4.082a.692.692,0,0,0,.13-.259,1.058,1.058,0,0,0,.065-.259.058.058,0,0,0-.065-.065q-.583.778-1.361,1.685t-1.458,1.652q-.68.745-1.166,1.3a5.377,5.377,0,0,0-.549.68q-1.039,1.3-1.783,2.2t-1.652,1.813c.086,0,.13.023.13.065q-.713.583-1.2,1a8.643,8.643,0,0,0-.875.875,1.344,1.344,0,0,0-.389.842c.216,0,.5-.184.842-.549s.767-.876,1.264-1.524,1.1-1.393,1.816-2.236,1.522-1.717,2.429-2.624a.186.186,0,0,0-.065.13q.585-.648,1.3-1.426a24.484,24.484,0,0,0,2.592-3.3m-10.368.585a.1.1,0,0,1,.066-.1.1.1,0,0,0,.063-.1,8.512,8.512,0,0,1,.356-1,7.064,7.064,0,0,1,.356-.68.548.548,0,0,1,.455-.323.189.189,0,0,0-.066-.131v.065c.043,0,.119-.171.227-.518a.625.625,0,0,1,.616-.518.2.2,0,0,0-.065-.13q0-.13.065-.13c.043,0,.108-.042.194-.13,0-.042-.011-.065-.032-.065s-.031-.02-.031-.065c0-.086.02-.117.063-.1s.107-.011.194-.1l-.065-.13c0,.043.13-.042.389-.259a1.037,1.037,0,0,0,.389-.842c0-.215-.043-.323-.128-.323,0,.086-.111.225-.325.42s-.324.335-.324.423a.113.113,0,0,0,.13.128c0,.045-.14.13-.421.259a.713.713,0,0,0-.421.713q-.65,1.231-1.23,2.333-.52.909-.941,1.782c-.282.583-.464.983-.551,1.2v-.065a9.761,9.761,0,0,0-.778,1.49,8.323,8.323,0,0,0-.518,1.557,8.053,8.053,0,0,0-.193,1.813.512.512,0,0,0,.063-.324q.518-1.685,1.134-3.208t1.328-2.947m24.171.193a.437.437,0,0,1-.13.324c-.128,0-.367.27-.713.81s-.724,1.166-1.134,1.879-.832,1.436-1.262,2.171a16.5,16.5,0,0,1-1.1,1.685,4.259,4.259,0,0,0-1,1.49,4.736,4.736,0,0,1-1.134,1.621c0-.045-.173.119-.518.485a1.558,1.558,0,0,0-.517,1,.058.058,0,0,0-.065-.065c-.043,0-.142.088-.293.259a4.262,4.262,0,0,0-.454.648,8.718,8.718,0,0,1-.485.745c-.174.239-.3.421-.389.551a10.592,10.592,0,0,1-.68.876,2.92,2.92,0,0,1-.292.258,3.7,3.7,0,0,0-.358.324q-.227.229-.873,1l-.2.194a.755.755,0,0,1-.13.194,1.969,1.969,0,0,1-.616.518,1.29,1.29,0,0,1-.551.195,2.2,2.2,0,0,1-1.651-.81c-.5-.539-.9-.961-1.2-1.262-.088-.045-.292-.131-.614-.261s-.486-.5-.486-1.1a.057.057,0,0,1,.063-.065.057.057,0,0,0,.065-.065,1.271,1.271,0,0,1-.389-.907q-.065-.646-.065-1.166a7.782,7.782,0,0,1,.162-1.523,8.182,8.182,0,0,0,.163-1.588l-.065-.065a.555.555,0,0,1,.1-.227c.066-.108.119-.162.162-.162a.142.142,0,0,0-.031-.1.127.127,0,0,1-.034-.1,5.5,5.5,0,0,1,.227-.875q.227-.745.358-1.2a.186.186,0,0,0-.131-.066c.043,0-.076.174-.356.52a5.53,5.53,0,0,0-.486.647.217.217,0,0,1-.162.065c-.065,0-.1.022-.1.065s.009.066.031.066.034.02.034.063c-.088.088-.152.13-.2.13s-.065.043-.065.13l.065.131q-.454.452-.938,1.036c-.325.389-.66.757-1,1.1,0,.045.008.065.031.065s.032.023.032.065a1.444,1.444,0,0,1-.29.324,3.6,3.6,0,0,0-.293.259c-.173.217-.432.551-.776,1s-.725.907-1.135,1.361a9.591,9.591,0,0,1-1.3,1.2,2.094,2.094,0,0,1-1.2.517h-.389a.9.9,0,0,1-.583-.324h-.194a.948.948,0,0,1-.421-.193,5.3,5.3,0,0,1-.744-.649,11.332,11.332,0,0,1-1.1-1.361c0-.13-.02-.184-.065-.162s-.063-.011-.063-.1a.193.193,0,0,1,.063-.13c-.085,0-.13-.02-.13-.065a.188.188,0,0,1,.066.13,6.718,6.718,0,0,0-.227-.745,3.583,3.583,0,0,1-.227-1.069.057.057,0,0,1,.063-.065l.065-.065h-.065a.065.065,0,0,1,0-.13l.065-.065h-.065a.056.056,0,0,1-.063-.065c0-.216.043-.324.128-.324a.057.057,0,0,0-.065-.065h-.063c0-.085.02-.13.063-.13h.065c0-.085-.02-.119-.065-.1s-.063.012-.063-.032a.261.261,0,0,0,.063-.194.74.74,0,0,1,.065-.324.292.292,0,0,0-.032-.13.439.439,0,0,1-.032-.193l.13-.649c.043-.173.088-.346.13-.518a1.764,1.764,0,0,0,.065-.389h-.065v-.421a1.531,1.531,0,0,1,.032-.259,2.579,2.579,0,0,1,.162-.454,7.775,7.775,0,0,0,.325-1,1.1,1.1,0,0,0,.323-.324,2.555,2.555,0,0,0,.259-.551,2.76,2.76,0,0,0,.13-.938,4.892,4.892,0,0,0,.389-.876,1.077,1.077,0,0,1,.065-.292c.043-.128.174-.454.389-.971s.691-1.492,1.427-2.917c0,.088.02.13.063.13s.184-.216.421-.647.518-.918.842-1.458a10.815,10.815,0,0,1,1.038-1.459,1.493,1.493,0,0,1,1.069-.648h.452q.713.13,1.2.259a3.673,3.673,0,0,1,.876.356.691.691,0,0,1,.389.616c0,.173.107.3.323.389a.3.3,0,0,1-.031.13.275.275,0,0,0-.034.131l.065.063.066-.063a.376.376,0,0,1,.128.258.741.741,0,0,1-.259.518l-.549.551a3.837,3.837,0,0,0-.52.648,1.368,1.368,0,0,0-.227.745.184.184,0,0,0,.065.13c-.13,0-.194.023-.194.065v.066c0,.043.011.063.034.063s.031.023.031.065c0,.173-.193.433-.583.778,0,.088.009.14.032.163a.123.123,0,0,1,.032.1q-.194,0-.551.778t-.744,1.782q-.391,1-.747,1.944a9.388,9.388,0,0,1-.549,1.264,1.724,1.724,0,0,1-.2.616c-.13.281-.27.606-.42.972a12.217,12.217,0,0,0-.423,1.2,4.286,4.286,0,0,0-.195,1.231,13.6,13.6,0,0,0,1.588-1.588q.551-.68,1.231-1.588t1.814-2.268q1.134-1.361,3.4-3.629l-.131.13a2.38,2.38,0,0,1,.293-.518,8.927,8.927,0,0,1,.874-1.1,8.847,8.847,0,0,0,.907-.907c.259-.3.529-.625.811-.972a6.4,6.4,0,0,0,.744-1.166v.065c.043,0,.14-.215.292-.648s.335-.648.551-.648a7.5,7.5,0,0,1,2.56.389,1.6,1.6,0,0,1,1.069,1.685,2.56,2.56,0,0,1-.356,1.231,2.469,2.469,0,0,0-.355,1.166l.063.13a.261.261,0,0,0-.259.131,3.316,3.316,0,0,0-.162.454c-.065.216-.161.54-.292.971a9.343,9.343,0,0,1-.711,1.62.263.263,0,0,0,.031.163.129.129,0,0,1,.034.1,2.293,2.293,0,0,1-.423.713,1.911,1.911,0,0,0-.42,1.1l.063.128a4.956,4.956,0,0,1-.486.778,3.291,3.291,0,0,0-.485,1.879q-.132,0-.358.68t-.485,1.62q-.261.94-.487,1.976a14.368,14.368,0,0,0-.29,1.75.056.056,0,0,0,.063.065q.129,0,.487-.389c.236-.259.5-.549.776-.875s.54-.648.778-.972a6.412,6.412,0,0,1,.551-.679v.063q.391-.452,1.134-1.49t1.685-2.4q.94-1.363,2.009-2.885t2.041-2.884c.216-.259.432-.5.649-.713q.322-.257.582-.486a.792.792,0,0,1,.518-.227,2.356,2.356,0,0,1,1.038.357q.646.358.711.68" transform="translate(30.503 5.532)" fill="#fff"></path>
    <path id="Pfad_62" data-name="Pfad 62" d="M750.836,543a13.043,13.043,0,0,0-.809,1.069,2.332,2.332,0,0,0-.292.583.841.841,0,0,0-.034.389.685.685,0,0,1-.1.421q.257,0,.421-.486a.99.99,0,0,1,.421-.616l-.066-.13a2.425,2.425,0,0,1,.454-1.231m2.626-26.18a.894.894,0,0,0,.162-.583.385.385,0,0,0-.065-.259q-.324.519-.842,1.393t-1.038,1.751c-.346.582-.647,1.069-.907,1.458s-.389.562-.389.517a.125.125,0,0,0,.034.1.14.14,0,0,1,.032.1,4.211,4.211,0,0,0-.421.585c-.194.3-.39.626-.583.971s-.369.67-.52.972a2.69,2.69,0,0,0-.227.518.058.058,0,0,0,.066.065c0-.086.107-.13.323-.13.044,0,.131-.171.26-.518s.259-.518.389-.518v-.194a5.2,5.2,0,0,0,1.328-1.912,5.813,5.813,0,0,1,.292-.81,1.769,1.769,0,0,1,.258-.744,6.512,6.512,0,0,1,.616-.941q.356-.452.876-1.166a2.721,2.721,0,0,1,.356-.648m-4.5,29.679a2.166,2.166,0,0,0-.356.486,5.38,5.38,0,0,0-.292.616c.13-.216.248-.409.356-.582s.2-.346.292-.52m-2.333-17.172q.063-.128.227-.486c.107-.236.215-.486.323-.745s.207-.508.293-.745a5.222,5.222,0,0,1,.194-.486.62.62,0,0,0-.454.194l-.13.13a2.94,2.94,0,0,1-.358,1.3,13.325,13.325,0,0,1-.778,1.361c-.281.432-.54.855-.776,1.264a2.158,2.158,0,0,0-.358,1.006L743,537.036a4.852,4.852,0,0,0,.355-.551,1.882,1.882,0,0,1,.487-.549q.583-1.3.809-1.848c.151-.366.25-.625.293-.778s.074-.281.1-.389a6.3,6.3,0,0,1,.227-.68,2.764,2.764,0,0,0,.876-1.652,2.076,2.076,0,0,1,.486-1.264m-2.916,25.661c-.347.6-.616,1.081-.811,1.427s-.346.625-.454.842a3.433,3.433,0,0,0-.227.549,1.769,1.769,0,0,0-.063.486.056.056,0,0,0,.063.065q1.3-2.59,2.723-5.087t2.915-4.956l-.13.063v-.063a5.1,5.1,0,0,0-.906,1.133,2.011,2.011,0,0,0-.261.617l.066.128a8.025,8.025,0,0,0-1,1.134,1.233,1.233,0,0,0-.227.486c0,.088.022.142.065.163s.065.074.065.162a.638.638,0,0,1-.13.323,5.3,5.3,0,0,1-.584.648,3.8,3.8,0,0,0-.647.81,3.071,3.071,0,0,0-.26.585,1.377,1.377,0,0,0-.063.355.115.115,0,0,1-.13.13M741.635,541.9l-.583.776c-.259.736-.466,1.328-.616,1.782s-.259.8-.324,1.037a2.41,2.41,0,0,0-.1.616,2.3,2.3,0,0,1-.194,1.069,1.335,1.335,0,0,0-.2.486.444.444,0,0,0,.034.194.463.463,0,0,1,.031.194,3.966,3.966,0,0,1-.162.941c-.107.409-.2.767-.292,1.069q-.322,1.49-.517,3.044a26.128,26.128,0,0,0-.194,3.24.058.058,0,0,0,.065.066c0-.044.022-.227.065-.552s.074-.679.1-1.069.054-.734.1-1.037.066-.475.066-.518a6.326,6.326,0,0,1,.194-1.458c.128-.539.281-1.079.454-1.62s.324-1.069.454-1.588a5.979,5.979,0,0,0,.194-1.426Zm14.386-21.451c-.086.086-.293.3-.616.648a1.439,1.439,0,0,0-.486.842c0,.088.02.13.063.13a3.576,3.576,0,0,0-.42.68c-.2.369-.412.767-.649,1.2s-.443.833-.616,1.2a3.614,3.614,0,0,0-.258.617c-.259.6-.466,1.069-.616,1.392s-.358.79-.616,1.393a3.883,3.883,0,0,0-1.166,2.009,2.759,2.759,0,0,1-.518,1.361,1.258,1.258,0,0,0-.358.454,7.42,7.42,0,0,0-.42.842,8.941,8.941,0,0,0-.325.875,2.381,2.381,0,0,0-.128.616,24.778,24.778,0,0,1-1.1,2.592,4.941,4.941,0,0,0-.582,1.49q-.067.13-.487,1.393t-.938,2.788q-.521,1.523-.94,2.818a9.682,9.682,0,0,0-.423,1.49,7.865,7.865,0,0,1-.582,2.657,4.739,4.739,0,0,0-.39.907,6.861,6.861,0,0,1-.324,1.978c-.216.712-.366,1.177-.454,1.392l.065.066a1.434,1.434,0,0,0-.065.454,1.809,1.809,0,0,1-.031.355,1.423,1.423,0,0,0-.034.292,4.168,4.168,0,0,0,.423-.583c.194-.3.389-.616.583-.94s.366-.616.517-.873a1.86,1.86,0,0,0,.227-.455h-.063a31.012,31.012,0,0,1,1.717-2.819q1.067-1.586,2.074-3.11t1.717-2.689a4.206,4.206,0,0,0,.713-1.554q1.1-1.944,1.361-2.431c.171-.323.259-.463.259-.421-.044,0-.066.065-.066.194v.131c.045,0,.108-.14.2-.422a3.509,3.509,0,0,1,.454-.907,3.824,3.824,0,0,1,.874-.907,2.458,2.458,0,0,1,1.524-.421,3.181,3.181,0,0,1,1.069.227.787.787,0,0,1,.614.745.7.7,0,0,1-.065.324,1.351,1.351,0,0,1-.258.324,6.674,6.674,0,0,0-.52.616c-.216.282-.518.7-.907,1.265a4.224,4.224,0,0,0-1.069,1.424,4.575,4.575,0,0,0-.162.583,1.3,1.3,0,0,1-.258.389q-.259.326-.551.745a8.956,8.956,0,0,0-.518.842,1.543,1.543,0,0,0-.227.682l.065-.066c-.389.389-.583.671-.583.842a.186.186,0,0,0,.065.13,3.676,3.676,0,0,0-1.166,1.328,2.859,2.859,0,0,0-.261.81.184.184,0,0,0,.066.13c-.131.173-.248.335-.358.487s-.205.29-.29.42l-.194.389a.13.13,0,0,0,.031.1.136.136,0,0,1,.034.1.788.788,0,0,0-.454.42c-.086.194-.153.335-.2.421,0,.045.011.065.034.065s.031.023.031.065a.907.907,0,0,0-.292.325,5.829,5.829,0,0,0-.29.517c-.088.173-.194.39-.325.648a.115.115,0,0,1-.128.131.114.114,0,0,0-.13.128.135.135,0,0,0,.031.1.132.132,0,0,1,.034.1c-.131,0-.174.032-.131.1s.023.1-.065.1h-.065a4.915,4.915,0,0,0-.29.552,4.664,4.664,0,0,1-.292.549.182.182,0,0,0,.065.13c-.13,0-.194.023-.194.065a.182.182,0,0,0,.065.13,7.469,7.469,0,0,0-1.2,1.944q-.68,1.428-1.327,2.722a.129.129,0,0,0,.031.1.136.136,0,0,1,.034.1.49.49,0,0,0-.292.258.793.793,0,0,0-.1.259.177.177,0,0,0,.065.13c-.13,0-.25.185-.356.551s-.185.552-.227.552v-.065c0,.82-.185,1.35-.551,1.586s-.552.378-.552.421c.043,0,.065.085.065.259a.057.057,0,0,1-.065-.063l-.063.063a.131.131,0,0,0,.032.1.126.126,0,0,1,.031.1q-.387.259-.582.421a1.614,1.614,0,0,1-.907.163c0-.174-.153-.3-.454-.39a1.906,1.906,0,0,0-.454-.063h.194c-.3,0-.454-.066-.454-.2v-.065l-.13.065a.317.317,0,0,1-.324-.292c-.042-.194-.108-.292-.2-.292a.127.127,0,0,0-.1.032.138.138,0,0,1-.1.032,4.13,4.13,0,0,1-.778-.713,3.23,3.23,0,0,1-.552-.745,1.838,1.838,0,0,1-.227-.875.058.058,0,0,1,.065-.065l.066-.065a.337.337,0,0,1-.162-.356.772.772,0,0,0-.227-.551.058.058,0,0,1,.065-.065c.043,0,.065-.042.065-.128a7.337,7.337,0,0,0-.1-1.135,8.688,8.688,0,0,1-.1-1.328,18.317,18.317,0,0,1,.1-1.847,17.341,17.341,0,0,0,.1-1.782h-.065a.058.058,0,0,1-.065-.065c.043,0,.108-.15.193-.454a1.4,1.4,0,0,0,.065-.454.113.113,0,0,1-.128-.128,1.763,1.763,0,0,1,.032-.261,4.594,4.594,0,0,1,.227-.713.287.287,0,0,0-.032-.13.281.281,0,0,1-.034-.13l.131-.389a.571.571,0,0,0,.065-.259.571.571,0,0,1,.065-.258V550c0-.088.011-.25.032-.487a2.479,2.479,0,0,1,.162-.68l-.066-.648a6.779,6.779,0,0,0,.454-1.717q.132-.938.324-1.847a6.752,6.752,0,0,1,.714-1.976,5.1,5.1,0,0,0,.582-2.365,1.974,1.974,0,0,1,.163-.421c.108-.236.225-.475.355-.711s.25-.464.358-.682a1.6,1.6,0,0,0,.162-.387.384.384,0,0,0-.065-.261l.065.065a22.045,22.045,0,0,0,1.165-2.785c.131-.477.2-.734.2-.779v.065a2.979,2.979,0,0,1,.292-.94c.194-.454.409-.927.648-1.426s.454-.961.648-1.393a2.84,2.84,0,0,0,.29-.842q.842-1.488,1.557-3.012t1.262-2.754q.551-1.233.973-2.01t.68-.778h.065a.2.2,0,0,0-.065-.13c0-.043.042-.108.13-.194a.187.187,0,0,1,.128-.065q1.166-2.072,1.783-3.11c.409-.69.713-1.22.906-1.586a8.1,8.1,0,0,1,.454-.779q.162-.227.423-.616a10.252,10.252,0,0,0,.873-1.586,1.227,1.227,0,0,1,1.2-.811,4.213,4.213,0,0,1,1.069.292,14.318,14.318,0,0,1,1.685.745,8.072,8.072,0,0,1,1.554,1.037,1.573,1.573,0,0,1,.68,1.1.635.635,0,0,1-.128.452q-1.1,1.3-2.074,2.4a11.209,11.209,0,0,0-1.49,2.074" transform="translate(36.518 0.34)" fill="#fff"></path>
    <path id="Pfad_63" data-name="Pfad 63" d="M754.194,545.766c0-.17.162-.431.485-.776s.659-.69,1-1.037a.144.144,0,0,0-.031-.1.122.122,0,0,1-.034-.1q0-.13.356-.551c.238-.281.508-.585.81-.907s.572-.637.81-.94a1.553,1.553,0,0,0,.358-.583.059.059,0,0,0-.066-.066.37.37,0,0,1,.131-.258,1,1,0,0,1,.258-.2.139.139,0,0,0-.031-.1.125.125,0,0,1-.034-.1,1.131,1.131,0,0,1,.518-1.037c.346-.216.52-.455.52-.713q.711-1.685,1.036-2.689a8.269,8.269,0,0,0,.324-1.134,3.805,3.805,0,0,1,.065-.68,3.806,3.806,0,0,0,.065-.68c0-.131-.011-.324-.031-.583s-.077-.39-.162-.39c-.131,0-.3.142-.52.423a6.719,6.719,0,0,0-.614.972q-.294.551-.52.971c-.151.282-.25.423-.292.423v-.065a.868.868,0,0,1-.193.518,4.565,4.565,0,0,1-.389.454c-.174.173-.347.347-.518.518l.065-.065v.128a1.576,1.576,0,0,1-.325.585q-.324.454-.389.454a.127.127,0,0,0,.034.1.138.138,0,0,1,.031.1,1.265,1.265,0,0,0-.227.325,1.254,1.254,0,0,1-.227.324l-.258.389a.058.058,0,0,1-.066-.065l-.065.065a.122.122,0,0,0,.034.1.143.143,0,0,1,.031.1,5.991,5.991,0,0,0-1.264,1.586,2.487,2.487,0,0,0-.227.876v.259a2.728,2.728,0,0,1-.227.907,11.016,11.016,0,0,1-.517,1.134q-.294.551-.68,1.393c.042,0,.065.065.065.194a1.373,1.373,0,0,1-.26.971,1.271,1.271,0,0,0-.259.909c0,.13.043.194.131.194a6.294,6.294,0,0,1,1.3-1.492Zm-1.233,3.306c.086,0,.119-.011.1-.032s-.012-.054.031-.1a.14.14,0,0,1,.1.031.128.128,0,0,0,.1.034.993.993,0,0,0,.616-.227,2.621,2.621,0,0,0,.485-.486,4.149,4.149,0,0,0,.389-.648c.475-.474.811-.832,1-1.069s.333-.421.423-.551a.632.632,0,0,0,.128-.292.358.358,0,0,1,.13-.227q1.3-1.944,1.75-2.527a2.568,2.568,0,0,1,.518-.585.133.133,0,0,1-.032.1.134.134,0,0,0-.032.1.187.187,0,0,0-.065.13l-.065-.065a1.171,1.171,0,0,1,.227-.551q.227-.354.454-.68c.153-.216.3-.421.454-.616a.88.88,0,0,0,.227-.421l-.065-.065a1.726,1.726,0,0,1,.389-1.037,2.751,2.751,0,0,0,.389-.583c-.086,0-.108-.022-.063-.065s.02-.066-.065-.066a8.781,8.781,0,0,1-.842,1.524q-.583.875-1.168,1.683t-1,1.458a2.705,2.705,0,0,0-.42.779,2.3,2.3,0,0,1-.682.94q-.292.162-.292.292l.065.128q-1.164,1.168-1.879,1.881c-.475.477-.842.832-1.1,1.069a4.918,4.918,0,0,0-.485.485.419.419,0,0,0-.1.2.187.187,0,0,1,.065.13.056.056,0,0,0,.065.063.19.19,0,0,0,.131-.063.181.181,0,0,1,.128-.065m1.168-15.23a.216.216,0,0,1,.1-.193.287.287,0,0,0,.1-.259q1.037-1.035,1.361-1.393t.324-.486l-.065-.065h-.063c0-.043.042-.108.128-.194l2.4-2.4a3.557,3.557,0,0,1,.647-.583q0,.065-.13.194l-.128.13a2.334,2.334,0,0,1,.485-.518q.486-.454.616-.454h.065c0-.042-.043-.065-.13-.065a.927.927,0,0,0-.68.292q-.292.292-.421.292v-.065a1.362,1.362,0,0,0-.614.389c-.152.173-.25.258-.293.258v-.063c0-.043-.162.174-.485.648s-.7.994-1.134,1.554-.855,1.081-1.265,1.557-.68.713-.809.713a3.512,3.512,0,0,1-.552,1l-.355.356q-.78,1.231-1.135,1.943t-.55,1.135c-.131.281-.227.5-.293.648a1.326,1.326,0,0,1-.292.421.206.206,0,0,1-.13.194c-.086.043-.128.086-.128.128a.285.285,0,0,0,.031.131.294.294,0,0,1,.034.13,2.857,2.857,0,0,0-.585.809c-.13.282-.236.531-.323.747a2.409,2.409,0,0,0-.131.776v-.063a.206.206,0,0,0,.131.194,32.988,32.988,0,0,1,1.912-4.147,32.3,32.3,0,0,1,2.365-3.7m8.812-4.924a3.266,3.266,0,0,1,1.2-.162q1-.032,2.169,0t2.2.065q1.037.033,1.362.032a4.638,4.638,0,0,1,.971.13,5.386,5.386,0,0,1,1.134.389,4.373,4.373,0,0,1,.907.551.814.814,0,0,1,.358.616c0,.216-.239.4-.714.549a12.074,12.074,0,0,1-1.652.39c-.626.108-1.23.184-1.814.225s-.961.066-1.134.066a12.616,12.616,0,0,0-1.586.194,12.815,12.815,0,0,1-1.976.193.187.187,0,0,0-.065.131,3.234,3.234,0,0,0,.193.972,7.145,7.145,0,0,1,.194,2.009,7.89,7.89,0,0,1-.13,1.944,1.5,1.5,0,0,0-.13.452.45.45,0,0,0,.032.2.431.431,0,0,1,.032.194,1.509,1.509,0,0,1-.128.454q-.132.326-.293.679t-.292.714a2.251,2.251,0,0,0-.13.421.057.057,0,0,0,.065.065l-.065-.065a8.06,8.06,0,0,0-.454.907,1.218,1.218,0,0,0-.063.389.121.121,0,0,0,.031.1.14.14,0,0,1,.032.1,3.614,3.614,0,0,0-.906,1.134,2.461,2.461,0,0,0-.065.551l-.389.518a1.887,1.887,0,0,0-.39.648.184.184,0,0,0,.065.13l-.065.065-.063-.065a15.072,15.072,0,0,1-1.006,1.944,8.69,8.69,0,0,1-.648.907,1.423,1.423,0,0,1-.356.324.262.262,0,0,0-.128.259c-.045,0-.065-.011-.065-.032s-.023-.032-.066-.032a2.34,2.34,0,0,1-.519,1.361,9.447,9.447,0,0,1-1.134,1.3,15.693,15.693,0,0,1-1.717,1.359l.131-.063h-.065q-.132,0-.649.551a3,3,0,0,1-2.138.551,2.391,2.391,0,0,1-2.04-.811q-.618-.808-1.265-1.523c0-.042-.042-.063-.13-.063a.114.114,0,0,1-.128-.13.193.193,0,0,1,.063-.13q-.583-.583-1.231-1.328c-.431-.5-.626-.788-.582-.876.086,0,.128-.063.128-.193a1.916,1.916,0,0,1-.389-.972,8.14,8.14,0,0,1-.193-1.816,11.5,11.5,0,0,1,.193-2.365,6.964,6.964,0,0,1,.421-1.36,6.445,6.445,0,0,1,.421-.779,1.082,1.082,0,0,0,.194-.616.149.149,0,0,1,.1-.161.4.4,0,0,0,.162-.1c0-.042-.011-.065-.032-.065s-.032-.02-.032-.065a4.118,4.118,0,0,1,.194-.455,1.5,1.5,0,0,1,.2-.323.185.185,0,0,0,.063-.131.128.128,0,0,0-.032-.1.13.13,0,0,1-.031-.1,1.454,1.454,0,0,1,.485-.907c.324-.346.466-.518.421-.518a7.977,7.977,0,0,1,.972-2.431,22.409,22.409,0,0,1,1.458-2.169,22.024,22.024,0,0,1,1.912-2.138,7.251,7.251,0,0,1,.649-.94,5.965,5.965,0,0,1,.809-.842q.421-.356.745-.583a1.346,1.346,0,0,1,.389-.227,3.042,3.042,0,0,1,1.1-.842c.215-.043.324-.108.324-.194a3.282,3.282,0,0,1,.387-.227,1.557,1.557,0,0,1,.648-.1,3.534,3.534,0,0,1,1.523.228,1.719,1.719,0,0,1,.583.454c.108.153.205.3.293.454s.3.227.647.227a.132.132,0,0,1-.031.1.132.132,0,0,0-.034.1l.261.389a1.133,1.133,0,0,0,.323.324" transform="translate(40.029 5.346)" fill="#fff"></path>
    <path id="Pfad_64" data-name="Pfad 64" d="M788.474,534.633q-2.009,2.527-3.564,4.5t-3.4,4.407q-1.847,2.43-3.6,4.763a6.338,6.338,0,0,0,2.2-2.268,3.357,3.357,0,0,0,.517-.648q.194-.324.454-.68t.649-.875A9.434,9.434,0,0,1,782.9,542.6c0-.13.2-.323.585-.583a1.1,1.1,0,0,0,.582-.907,3.929,3.929,0,0,1,.616-1.134q.616-.938,1.395-2.074t1.489-2.106a14.349,14.349,0,0,1,.907-1.165m-11.4,2.656.128-.259a.569.569,0,0,0,.065-.258c0-.088-.022-.131-.065-.131a9.353,9.353,0,0,0-.454.875c-.216.454-.432.962-.648,1.523a14.831,14.831,0,0,0-.55,1.75,6.442,6.442,0,0,0-.227,1.555.177.177,0,0,0,.065.13q.128,0,.551-1.588t1.134-3.6m.128-4.082a.692.692,0,0,0,.13-.259,1.057,1.057,0,0,0,.065-.259.058.058,0,0,0-.065-.065q-.583.778-1.361,1.685t-1.458,1.652q-.68.745-1.167,1.3a5.383,5.383,0,0,0-.549.68q-1.039,1.3-1.783,2.2t-1.651,1.813c.085,0,.128.023.128.065q-.713.583-1.2,1a8.654,8.654,0,0,0-.876.875,1.344,1.344,0,0,0-.389.842c.216,0,.5-.184.842-.549s.768-.876,1.265-1.524,1.1-1.393,1.815-2.236,1.521-1.717,2.429-2.624a.187.187,0,0,0-.065.13q.585-.648,1.3-1.426a24.479,24.479,0,0,0,2.592-3.3m-10.367.585a.1.1,0,0,1,.065-.1.1.1,0,0,0,.063-.1,8.51,8.51,0,0,1,.356-1,6.772,6.772,0,0,1,.358-.68.544.544,0,0,1,.454-.323.193.193,0,0,0-.065-.131v.065c.042,0,.118-.171.227-.518a.623.623,0,0,1,.616-.518.2.2,0,0,0-.066-.13c0-.086.023-.13.066-.13s.107-.042.193-.13c0-.042-.009-.065-.032-.065s-.031-.02-.031-.065c0-.086.02-.117.063-.1s.107-.011.194-.1l-.065-.13c0,.043.131-.042.389-.259a1.037,1.037,0,0,0,.389-.842c0-.215-.043-.323-.128-.323,0,.086-.109.225-.325.42s-.324.335-.324.423a.114.114,0,0,0,.131.128c0,.045-.142.13-.423.259a.714.714,0,0,0-.42.713q-.65,1.231-1.231,2.333-.52.909-.941,1.782c-.281.583-.463.983-.551,1.2v-.065a9.755,9.755,0,0,0-.778,1.49,8.417,8.417,0,0,0-.519,1.557,8.053,8.053,0,0,0-.193,1.813.512.512,0,0,0,.063-.324q.52-1.685,1.134-3.208t1.33-2.947m24.17.193a.437.437,0,0,1-.13.324c-.128,0-.367.27-.713.81s-.724,1.166-1.134,1.879-.832,1.436-1.262,2.171a16.529,16.529,0,0,1-1.1,1.685,4.258,4.258,0,0,0-1,1.49,4.737,4.737,0,0,1-1.134,1.621c0-.045-.173.119-.518.485a1.558,1.558,0,0,0-.517,1,.058.058,0,0,0-.065-.065c-.043,0-.142.088-.293.259a4.262,4.262,0,0,0-.454.648,8.747,8.747,0,0,1-.485.745c-.174.239-.3.421-.389.551a10.587,10.587,0,0,1-.68.876,2.913,2.913,0,0,1-.292.258,3.713,3.713,0,0,0-.358.324q-.227.229-.873,1l-.2.194a.756.756,0,0,1-.13.194,1.969,1.969,0,0,1-.616.518,1.29,1.29,0,0,1-.551.195,2.2,2.2,0,0,1-1.651-.81c-.5-.539-.9-.961-1.2-1.262-.088-.045-.292-.131-.614-.261s-.486-.5-.486-1.1a.057.057,0,0,1,.063-.065.057.057,0,0,0,.065-.065,1.271,1.271,0,0,1-.389-.907q-.065-.646-.065-1.166a7.782,7.782,0,0,1,.162-1.523,8.177,8.177,0,0,0,.163-1.588l-.065-.065a.554.554,0,0,1,.1-.227c.066-.108.119-.162.162-.162a.142.142,0,0,0-.031-.1.127.127,0,0,1-.034-.1,5.509,5.509,0,0,1,.227-.875q.227-.745.358-1.2a.187.187,0,0,0-.131-.066c.043,0-.076.174-.356.52a5.522,5.522,0,0,0-.486.647.218.218,0,0,1-.162.065c-.065,0-.1.022-.1.065s.009.066.031.066.034.02.034.063c-.088.088-.152.13-.2.13s-.065.043-.065.13l.065.131q-.454.452-.938,1.036c-.325.389-.66.757-1,1.1,0,.045.008.065.031.065s.032.023.032.065a1.444,1.444,0,0,1-.29.324,3.541,3.541,0,0,0-.292.259c-.174.217-.433.551-.778,1s-.725.907-1.134,1.361a9.671,9.671,0,0,1-1.3,1.2,2.1,2.1,0,0,1-1.2.517h-.389a.9.9,0,0,1-.583-.324h-.193a.945.945,0,0,1-.422-.193,5.373,5.373,0,0,1-.744-.649,11.326,11.326,0,0,1-1.1-1.361c0-.13-.02-.184-.065-.162s-.063-.011-.063-.1a.193.193,0,0,1,.063-.13c-.085,0-.128-.02-.128-.065a.192.192,0,0,1,.065.13,6.711,6.711,0,0,0-.227-.745,3.585,3.585,0,0,1-.227-1.069.057.057,0,0,1,.063-.065l.065-.065h-.065a.065.065,0,0,1,0-.13l.065-.065h-.065a.057.057,0,0,1-.063-.065c0-.216.043-.324.128-.324a.057.057,0,0,0-.065-.065h-.063c0-.085.022-.13.063-.13h.065c0-.085-.02-.119-.065-.1s-.063.012-.063-.032a.262.262,0,0,0,.063-.194.739.739,0,0,1,.065-.324.309.309,0,0,0-.031-.13.419.419,0,0,1-.034-.193l.13-.649c.043-.173.088-.346.131-.518a1.761,1.761,0,0,0,.065-.389h-.065v-.421a1.494,1.494,0,0,1,.031-.259,2.589,2.589,0,0,1,.162-.454,7.575,7.575,0,0,0,.325-1,1.11,1.11,0,0,0,.324-.324,2.555,2.555,0,0,0,.258-.551,2.76,2.76,0,0,0,.13-.938,4.89,4.89,0,0,0,.389-.876,1.04,1.04,0,0,1,.066-.292c.043-.128.173-.454.388-.971s.691-1.492,1.427-2.917c0,.088.02.13.063.13s.184-.216.421-.647.52-.918.843-1.458a10.825,10.825,0,0,1,1.038-1.459,1.493,1.493,0,0,1,1.069-.648h.452q.713.13,1.2.259a3.673,3.673,0,0,1,.876.356.691.691,0,0,1,.389.616c0,.173.107.3.323.389a.3.3,0,0,1-.031.13.275.275,0,0,0-.034.131l.065.063.066-.063a.376.376,0,0,1,.128.258.742.742,0,0,1-.259.518c-.173.174-.356.356-.549.551a3.84,3.84,0,0,0-.52.648,1.367,1.367,0,0,0-.227.745.184.184,0,0,0,.065.13c-.13,0-.194.023-.194.065v.066c0,.043.011.063.034.063s.031.023.031.065c0,.173-.193.433-.582.778,0,.088.008.14.031.163a.128.128,0,0,1,.032.1c-.128,0-.313.259-.551.778s-.486,1.112-.744,1.782-.509,1.319-.745,1.944a9.534,9.534,0,0,1-.551,1.264,1.7,1.7,0,0,1-.2.616c-.13.281-.27.606-.42.972s-.292.767-.422,1.2a4.286,4.286,0,0,0-.194,1.231,13.491,13.491,0,0,0,1.588-1.588q.551-.68,1.231-1.588t1.814-2.268q1.134-1.361,3.4-3.629l-.131.13a2.384,2.384,0,0,1,.293-.518,8.939,8.939,0,0,1,.874-1.1,8.847,8.847,0,0,0,.907-.907c.259-.3.529-.625.811-.972a6.4,6.4,0,0,0,.744-1.166v.065c.043,0,.14-.215.292-.648s.335-.648.551-.648a7.5,7.5,0,0,1,2.56.389,1.6,1.6,0,0,1,1.069,1.685,2.56,2.56,0,0,1-.356,1.231,2.468,2.468,0,0,0-.355,1.166l.063.13a.261.261,0,0,0-.259.131,3.325,3.325,0,0,0-.162.454c-.065.216-.161.54-.292.971a9.343,9.343,0,0,1-.711,1.62.264.264,0,0,0,.031.163.129.129,0,0,1,.034.1,2.292,2.292,0,0,1-.423.713,1.911,1.911,0,0,0-.42,1.1l.063.128a4.952,4.952,0,0,1-.486.778,3.291,3.291,0,0,0-.485,1.879q-.132,0-.358.68t-.485,1.62q-.261.94-.487,1.976a14.369,14.369,0,0,0-.29,1.75.056.056,0,0,0,.063.065c.086,0,.248-.13.487-.389s.5-.549.776-.875.54-.648.778-.972a6.413,6.413,0,0,1,.551-.679v.063q.391-.452,1.134-1.49t1.685-2.4q.94-1.363,2.009-2.885t2.041-2.884c.216-.259.432-.5.649-.713q.322-.257.582-.486a.792.792,0,0,1,.518-.227,2.356,2.356,0,0,1,1.038.357q.646.358.711.68" transform="translate(45.405 5.532)" fill="#fff"></path>
    <path id="Pfad_65" data-name="Pfad 65" d="M792.246,533.156c.043.13.074.227.1.292a.765.765,0,0,1,.032.227v.131c.042,0,.087-.27.13-.811a7.406,7.406,0,0,1,.648-2.169,1.944,1.944,0,0,0-.842,1.165,5.469,5.469,0,0,0-.13.973v.193ZM788.1,550.264a.262.262,0,0,0-.065-.193l-.972.647c.043.043.074.065.1.065s.054.023.1.066a1.274,1.274,0,0,0,.583-.131.462.462,0,0,0,.259-.454m.842-21.124q.778-.583,1.264-.907t.745-.52a1.275,1.275,0,0,1,.454-.323.057.057,0,0,0-.065.065.057.057,0,0,1-.065-.065.807.807,0,0,1-.356.193,8.1,8.1,0,0,0-1.134.583c-.086.088-.12.142-.1.162s-.011.034-.1.034a1.694,1.694,0,0,0-.972.485c-.389.324-.778.682-1.167,1.069s-.887.909-1.49,1.555l-.065.065a.125.125,0,0,0,.032.1.141.141,0,0,1,.032.1,2.768,2.768,0,0,1-.356.29c-.152.109-.227.207-.227.292,0,.045.009.065.032.065s.032.023.032.065a.19.19,0,0,1-.065.131v.065a18.134,18.134,0,0,1,3.564-3.5m-8.23,18.467a2.686,2.686,0,0,0,.421-.355,4.549,4.549,0,0,1,.486-.423l.518-.518a1.068,1.068,0,0,0-.454.227q-.324.229-.68.487c-.236.173-.443.335-.616.485s-.259.25-.259.292l.065.131c-.346.258-.518.475-.518.647,0,.088.023.131.065.131a2.53,2.53,0,0,1,.486-.585,3.491,3.491,0,0,0,.486-.518m16.848-19.829a1.217,1.217,0,0,1,.13.324,3.909,3.909,0,0,1-.065.68,3.469,3.469,0,0,1-.194.68,10.219,10.219,0,0,0-1,1.265,21.893,21.893,0,0,0-1.2,1.912,18.232,18.232,0,0,0-1.037,2.169,5.552,5.552,0,0,0-.454,2.043q0,.324.065.324a4.184,4.184,0,0,1-.907-.228,1.1,1.1,0,0,1-.843-.81c-.173,0-.3-.182-.389-.551a9.092,9.092,0,0,1-.195-1.165q-.065-.616-.1-1.166c-.023-.367-.032-.572-.032-.616a.643.643,0,0,0,.065-.292.644.644,0,0,1,.065-.292q-.065,0-.453.454c-.259.3-.551.637-.875,1s-.639.693-.94.973-.518.42-.648.42c-.173,0-.335.142-.486.423a6.79,6.79,0,0,0-.421.971,7.729,7.729,0,0,0-.292,1.037,4.406,4.406,0,0,0-.1.616,2.292,2.292,0,0,0,.162.94,3.954,3.954,0,0,0,.389.68q.227.324.486.714a3.9,3.9,0,0,1,.454,1.036.584.584,0,0,1,.162.292.55.55,0,0,0,.162.293,9.233,9.233,0,0,0,.616,1.846q.421.942.81,1.978a20.284,20.284,0,0,1,.68,2.2,9.842,9.842,0,0,1,.292,2.4,7.738,7.738,0,0,1-.194,1.75,3.473,3.473,0,0,1-.745,1.49,3.848,3.848,0,0,1-1.458,1.037,6.546,6.546,0,0,1-3.143.324,6.408,6.408,0,0,0-.941-.065.67.67,0,0,0-.225.034.762.762,0,0,1-.227.031,6.56,6.56,0,0,1-1.847-.454,6.349,6.349,0,0,1-1.231-.68,3.651,3.651,0,0,1-.875-.94c-.086-.085-.269-.292-.551-.616s-.421-.529-.421-.616l.065-.065.065-.065q-.583-.646-.745-.873a.712.712,0,0,1-.162-.358.109.109,0,0,1,.065-.1.1.1,0,0,0,.065-.1,1.056,1.056,0,0,0-.1-.292c-.065-.151-.139-.324-.227-.52s-.162-.377-.227-.549a1.393,1.393,0,0,1-.1-.324,1.549,1.549,0,0,1,.518-.745,12.591,12.591,0,0,1,.972-.811,14.684,14.684,0,0,1,1.426-.907,6.216,6.216,0,0,1,.94-.582c.41-.216.768-.389,1.069-.52a16.137,16.137,0,0,0-.745,2.3,10,10,0,0,0-.292,2.365c0,.347.086.52.259.52a.26.26,0,0,0,.194-.066,7.044,7.044,0,0,0,1.264.131h.94a4.305,4.305,0,0,0,.907-.065.792.792,0,0,0,.324-.131.494.494,0,0,0,.1-.13c.022-.042.076-.063.162-.063l-.065-.065v.065q.194,0,.842-.616a2.044,2.044,0,0,0,.713-1.134l-.065-.065a.058.058,0,0,1-.065-.066h.13a6.458,6.458,0,0,0-.194-1.685,10.888,10.888,0,0,0-.421-1.264c-.153-.366-.292-.713-.421-1.035a3.048,3.048,0,0,1-.194-1.135,4.314,4.314,0,0,1-.356-.745,1.084,1.084,0,0,0-.227-.42c-.086-.131-.151-.2-.194-.2l.065.065v-.065l.065-.13a.8.8,0,0,0-.292-.486.812.812,0,0,1-.292-.549.189.189,0,0,1,.065-.131h-.13v-.065l.065-.128c-.346-.649-.627-1.188-.843-1.621s-.41-.852-.583-1.264-.281-.657-.324-.745h.065a2.581,2.581,0,0,1-.227-.68,5.194,5.194,0,0,1-.162-1.327,2.974,2.974,0,0,1,.324-1.589,1.948,1.948,0,0,1,.454-.549c0-.043-.045-.066-.13-.066a5.869,5.869,0,0,1,.972-1.75,6.058,6.058,0,0,1,.972-.907,3.073,3.073,0,0,1,.745-.42c.194-.066.292-.162.292-.293l.065.066a.057.057,0,0,0,.065.065c.043,0,.065-.108.065-.325.043,0,.065.011.065.034s.022.031.065.031c.475-.3.864-.551,1.167-.744a14.256,14.256,0,0,0,1.166-.876l.13.131c.043,0,.074-.034.1-.1a.407.407,0,0,1,.1-.163,6.925,6.925,0,0,1,1.458-.713,4.389,4.389,0,0,1,1.328-.193q.389,0,1.2.063a10.556,10.556,0,0,1,1.62.26,4.684,4.684,0,0,1,1.426.582,1.183,1.183,0,0,1,.616,1.037" transform="translate(50.899 5.061)" fill="#fff"></path>
    <path id="Pfad_66" data-name="Pfad 66" d="M712.694,553.928a13.2,13.2,0,0,1-6.347-1.43,12.342,12.342,0,0,1-4.32-3.812v4.766h-4.469V511.745h4.469v16.742a12.13,12.13,0,0,1,4.32-3.873,13.213,13.213,0,0,1,6.347-1.428,13.674,13.674,0,0,1,12.631,7.6,17.738,17.738,0,0,1,0,15.52,13.632,13.632,0,0,1-12.631,7.626m-.6-4.052a9.813,9.813,0,0,0,9.3-5.69,13.371,13.371,0,0,0,0-11.29,9.854,9.854,0,0,0-9.3-5.659,9.589,9.589,0,0,0-9.115,5.659,13.963,13.963,0,0,0,0,11.29,9.551,9.551,0,0,0,9.115,5.69" transform="translate(22.632 0.129)" fill="#fff"></path>
    <path id="Pfad_67" data-name="Pfad 67" d="M684.434,550.962a13.631,13.631,0,0,1-12.631-7.626,17.737,17.737,0,0,1,0-15.52,13.674,13.674,0,0,1,12.631-7.6,13.212,13.212,0,0,1,6.346,1.428,12.129,12.129,0,0,1,4.32,3.873V520.7h4.469v29.79H695.1V545.72a12.341,12.341,0,0,1-4.32,3.813,13.2,13.2,0,0,1-6.346,1.43m.6-4.052a9.474,9.474,0,0,0,9.115-5.69,13.963,13.963,0,0,0,0-11.29,9.511,9.511,0,0,0-9.115-5.659,9.935,9.935,0,0,0-9.3,5.659,13.37,13.37,0,0,0,0,11.29,9.893,9.893,0,0,0,9.3,5.69" transform="translate(12.991 3.095)" fill="#fff"></path>
    <path id="Pfad_68" data-name="Pfad 68" d="M663.666,553.56V527.7H655.6l2.94-3.933h5.125v-2.622q0-4.884,2.95-7.328t8.073-2.443h.358v4.231h-.6a6.978,6.978,0,0,0-4.706,1.4,5.667,5.667,0,0,0-1.609,4.5v2.264h3.456V527.7h-3.456V553.56Z" transform="translate(7.945 0)" fill="#fff"></path>
    <path id="Pfad_69" data-name="Pfad 69" d="M654.652,520.557l-7.628,11.261-7.686-11.261h-5.72L644.4,534.975l-11.5,15.371h5.661l8.461-12.154,16.56,20.153h5.639l-19.635-23.37,10.784-14.418Z" transform="translate(0 3.214)" fill="#fff"></path>
  </g>
</svg>
